# xmcd CD database file
#
# Track frame offsets:
#	180
#	17687
#	37597
#	52645
#	70210
#	98772
#	118792
#	139790
#	160385
#	173355
#
# Disc length: 2485 seconds
#
# Revision: 0
# Processed by: cddbd v1.5.1PL0 Copyright (c) Steve Scherf et al.
# Submitted via: CDex 1.51
#
DISCID=6f09b30a
DTITLE=Blues de Garrafa - Blues de Garrafa
DYEAR=1998
DGENRE=Blues
TTITLE0=Whishy In My Coffe
TTITLE1=Don't Advantages To Me
TTITLE2=Pig Smile
TTITLE3=Back To Mountain
TTITLE4=So Many Times
TTITLE5=Rumblin' To My Mind
TTITLE6=It's Around The Midnight
TTITLE7=She My Babe
TTITLE8=Smoking
TTITLE9=Lazy Man
EXTD=YEAR: 1998
EXTT0=
EXTT1=
EXTT2=
EXTT3=
EXTT4=
EXTT5=
EXTT6=
EXTT7=
EXTT8=
EXTT9=
PLAYORDER=
